<svg id="my-svg" width="4916.841796875" xmlns="http://www.w3.org/2000/svg" xmlns:xlink="http://www.w3.org/1999/xlink" height="619" viewBox="-8 -8 4916.841796875 619" role="graphics-document document" aria-roledescription="flowchart-v2" style="background-color: transparent;"><style>#my-svg{font-family:-apple-system,Segoe UI,Roboto,sans-serif;font-size:16px;fill:#ccc;}#my-svg .error-icon{fill:#a44141;}#my-svg .error-text{fill:#ddd;stroke:#ddd;}#my-svg .edge-thickness-normal{stroke-width:2px;}#my-svg .edge-thickness-thick{stroke-width:3.5px;}#my-svg .edge-pattern-solid{stroke-dasharray:0;}#my-svg .edge-pattern-dashed{stroke-dasharray:3;}#my-svg .edge-pattern-dotted{stroke-dasharray:2;}#my-svg .marker{fill:lightgrey;stroke:lightgrey;}#my-svg .marker.cross{stroke:lightgrey;}#my-svg svg{font-family:-apple-system,Segoe UI,Roboto,sans-serif;font-size:16px;}#my-svg .label{font-family:-apple-system,Segoe UI,Roboto,sans-serif;color:#ccc;}#my-svg .cluster-label text{fill:#F9FFFE;}#my-svg .cluster-label span,#my-svg p{color:#F9FFFE;}#my-svg .label text,#my-svg span,#my-svg p{fill:#ccc;color:#ccc;}#my-svg .node rect,#my-svg .node circle,#my-svg .node ellipse,#my-svg .node polygon,#my-svg .node path{fill:#1f2020;stroke:#81B1DB;stroke-width:1px;}#my-svg .flowchart-label text{text-anchor:middle;}#my-svg .node .katex path{fill:#000;stroke:#000;stroke-width:1px;}#my-svg .node .label{text-align:center;}#my-svg .node.clickable{cursor:pointer;}#my-svg .arrowheadPath{fill:lightgrey;}#my-svg .edgePath .path{stroke:lightgrey;stroke-width:2.0px;}#my-svg .flowchart-link{stroke:lightgrey;fill:none;}#my-svg .edgeLabel{background-color:hsl(0, 0%, 34.4117647059%);text-align:center;}#my-svg .edgeLabel rect{opacity:0.5;background-color:hsl(0, 0%, 34.4117647059%);fill:hsl(0, 0%, 34.4117647059%);}#my-svg .labelBkg{background-color:rgba(87.75, 87.75, 87.75, 0.5);}#my-svg .cluster rect{fill:hsl(180, 1.5873015873%, 28.3529411765%);stroke:rgba(255, 255, 255, 0.25);stroke-width:1px;}#my-svg .cluster text{fill:#F9FFFE;}#my-svg .cluster span,#my-svg p{color:#F9FFFE;}#my-svg div.mermaidTooltip{position:absolute;text-align:center;max-width:200px;padding:2px;font-family:-apple-system,Segoe UI,Roboto,sans-serif;font-size:12px;background:hsl(20, 1.5873015873%, 12.3529411765%);border:1px solid rgba(255, 255, 255, 0.25);border-radius:2px;pointer-events:none;z-index:100;}#my-svg .flowchartTitleText{text-anchor:middle;font-size:18px;fill:#ccc;}#my-svg :root{--mermaid-font-family:-apple-system,Segoe UI,Roboto,sans-serif;}#my-svg .green rect{fill:rgb(11, 61, 11)!important;stroke:rgb(76, 175, 80)!important;color:rgb(234, 255, 234)!important;}#my-svg .green polygon{fill:rgb(11, 61, 11)!important;stroke:rgb(76, 175, 80)!important;color:rgb(234, 255, 234)!important;}#my-svg .green ellipse{fill:rgb(11, 61, 11)!important;stroke:rgb(76, 175, 80)!important;color:rgb(234, 255, 234)!important;}#my-svg .green circle{fill:rgb(11, 61, 11)!important;stroke:rgb(76, 175, 80)!important;color:rgb(234, 255, 234)!important;}#my-svg .green path{fill:rgb(11, 61, 11)!important;stroke:rgb(76, 175, 80)!important;color:rgb(234, 255, 234)!important;}#my-svg .green tspan{fill:rgb(234, 255, 234)!important;}#my-svg .apex rect{fill:rgb(11, 61, 11)!important;stroke:rgb(255, 215, 0)!important;stroke-width:2px!important;color:rgb(234, 255, 234)!important;}#my-svg .apex polygon{fill:rgb(11, 61, 11)!important;stroke:rgb(255, 215, 0)!important;stroke-width:2px!important;color:rgb(234, 255, 234)!important;}#my-svg .apex ellipse{fill:rgb(11, 61, 11)!important;stroke:rgb(255, 215, 0)!important;stroke-width:2px!important;color:rgb(234, 255, 234)!important;}#my-svg .apex circle{fill:rgb(11, 61, 11)!important;stroke:rgb(255, 215, 0)!important;stroke-width:2px!important;color:rgb(234, 255, 234)!important;}#my-svg .apex path{fill:rgb(11, 61, 11)!important;stroke:rgb(255, 215, 0)!important;stroke-width:2px!important;color:rgb(234, 255, 234)!important;}#my-svg .apex tspan{fill:rgb(234, 255, 234)!important;}#my-svg .yellow rect{fill:rgb(77, 59, 0)!important;stroke:rgb(255, 193, 7)!important;color:rgb(255, 248, 225)!important;}#my-svg .yellow polygon{fill:rgb(77, 59, 0)!important;stroke:rgb(255, 193, 7)!important;color:rgb(255, 248, 225)!important;}#my-svg .yellow ellipse{fill:rgb(77, 59, 0)!important;stroke:rgb(255, 193, 7)!important;color:rgb(255, 248, 225)!important;}#my-svg .yellow circle{fill:rgb(77, 59, 0)!important;stroke:rgb(255, 193, 7)!important;color:rgb(255, 248, 225)!important;}#my-svg .yellow path{fill:rgb(77, 59, 0)!important;stroke:rgb(255, 193, 7)!important;color:rgb(255, 248, 225)!important;}#my-svg .yellow tspan{fill:rgb(255, 248, 225)!important;}#my-svg .deferred rect{fill:rgb(42, 42, 42)!important;stroke:rgb(158, 158, 158)!important;color:rgb(224, 224, 224)!important;stroke-dasharray:6,4!important;}#my-svg .deferred polygon{fill:rgb(42, 42, 42)!important;stroke:rgb(158, 158, 158)!important;color:rgb(224, 224, 224)!important;stroke-dasharray:6,4!important;}#my-svg .deferred ellipse{fill:rgb(42, 42, 42)!important;stroke:rgb(158, 158, 158)!important;color:rgb(224, 224, 224)!important;stroke-dasharray:6,4!important;}#my-svg .deferred circle{fill:rgb(42, 42, 42)!important;stroke:rgb(158, 158, 158)!important;color:rgb(224, 224, 224)!important;stroke-dasharray:6,4!important;}#my-svg .deferred path{fill:rgb(42, 42, 42)!important;stroke:rgb(158, 158, 158)!important;color:rgb(224, 224, 224)!important;stroke-dasharray:6,4!important;}#my-svg .deferred tspan{fill:rgb(224, 224, 224)!important;}#my-svg .fallen rect{fill:rgb(61, 11, 11)!important;stroke:rgb(229, 115, 115)!important;color:rgb(255, 235, 238)!important;}#my-svg .fallen polygon{fill:rgb(61, 11, 11)!important;stroke:rgb(229, 115, 115)!important;color:rgb(255, 235, 238)!important;}#my-svg .fallen ellipse{fill:rgb(61, 11, 11)!important;stroke:rgb(229, 115, 115)!important;color:rgb(255, 235, 238)!important;}#my-svg .fallen circle{fill:rgb(61, 11, 11)!important;stroke:rgb(229, 115, 115)!important;color:rgb(255, 235, 238)!important;}#my-svg .fallen path{fill:rgb(61, 11, 11)!important;stroke:rgb(229, 115, 115)!important;color:rgb(255, 235, 238)!important;}#my-svg .fallen tspan{fill:rgb(255, 235, 238)!important;}#my-svg .rootnode rect{fill:rgb(26, 26, 26)!important;stroke:rgb(136, 136, 136)!important;color:rgb(255, 255, 255)!important;}#my-svg .rootnode polygon{fill:rgb(26, 26, 26)!important;stroke:rgb(136, 136, 136)!important;color:rgb(255, 255, 255)!important;}#my-svg .rootnode ellipse{fill:rgb(26, 26, 26)!important;stroke:rgb(136, 136, 136)!important;color:rgb(255, 255, 255)!important;}#my-svg .rootnode circle{fill:rgb(26, 26, 26)!important;stroke:rgb(136, 136, 136)!important;color:rgb(255, 255, 255)!important;}#my-svg .rootnode path{fill:rgb(26, 26, 26)!important;stroke:rgb(136, 136, 136)!important;color:rgb(255, 255, 255)!important;}#my-svg .rootnode tspan{fill:rgb(255, 255, 255)!important;}</style><g><marker id="my-svg_flowchart-pointEnd" class="marker flowchart" viewBox="0 0 10 10" refX="6" refY="5" markerUnits="userSpaceOnUse" markerWidth="12" markerHeight="12" orient="auto"><path d="M 0 0 L 10 5 L 0 10 z" class="arrowMarkerPath" style="stroke-width: 1; stroke-dasharray: 1, 0;"/></marker><marker id="my-svg_flowchart-pointStart" class="marker flowchart" viewBox="0 0 10 10" refX="4.5" refY="5" markerUnits="userSpaceOnUse" markerWidth="12" markerHeight="12" orient="auto"><path d="M 0 5 L 10 10 L 10 0 z" class="arrowMarkerPath" style="stroke-width: 1; stroke-dasharray: 1, 0;"/></marker><marker id="my-svg_flowchart-circleEnd" class="marker flowchart" viewBox="0 0 10 10" refX="11" refY="5" markerUnits="userSpaceOnUse" markerWidth="11" markerHeight="11" orient="auto"><circle cx="5" cy="5" r="5" class="arrowMarkerPath" style="stroke-width: 1; stroke-dasharray: 1, 0;"/></marker><marker id="my-svg_flowchart-circleStart" class="marker flowchart" viewBox="0 0 10 10" refX="-1" refY="5" markerUnits="userSpaceOnUse" markerWidth="11" markerHeight="11" orient="auto"><circle cx="5" cy="5" r="5" class="arrowMarkerPath" style="stroke-width: 1; stroke-dasharray: 1, 0;"/></marker><marker id="my-svg_flowchart-crossEnd" class="marker cross flowchart" viewBox="0 0 11 11" refX="12" refY="5.2" markerUnits="userSpaceOnUse" markerWidth="11" markerHeight="11" orient="auto"><path d="M 1,1 l 9,9 M 10,1 l -9,9" class="arrowMarkerPath" style="stroke-width: 2; stroke-dasharray: 1, 0;"/></marker><marker id="my-svg_flowchart-crossStart" class="marker cross flowchart" viewBox="0 0 11 11" refX="-1" refY="5.2" markerUnits="userSpaceOnUse" markerWidth="11" markerHeight="11" orient="auto"><path d="M 1,1 l 9,9 M 10,1 l -9,9" class="arrowMarkerPath" style="stroke-width: 2; stroke-dasharray: 1, 0;"/></marker><g class="root"><g class="clusters"/><g class="edgePaths"><path d="M2148.5,33.806L2333.079,40.672C2517.659,47.537,2886.818,61.269,3071.397,79.134C3255.977,97,3255.977,119,3255.977,142.583C3255.977,166.167,3255.977,191.333,3257.22,208.811C3258.463,226.288,3260.949,236.075,3262.192,240.969L3263.435,245.863" id="L-ROOT-MT-0" class="edge-thickness-normal edge-pattern-solid flowchart-link LS-ROOT LE-MT" style="fill:none;" marker-end="url(#my-svg_flowchart-pointEnd)"/><path d="M3588.334,304.044L3712.716,311.953C3837.099,319.863,4085.864,335.681,4210.319,349.874C4334.775,364.067,4334.921,376.634,4334.994,382.917L4335.067,389.2" id="L-MT-FC-0" class="edge-thickness-thick edge-pattern-solid flowchart-link LS-MT LE-FC" style="stroke-width: 3.5px;fill:none;" marker-end="url(#my-svg_flowchart-pointEnd)"/><path d="M4159.784,430.444L4008.674,439.786C3857.564,449.129,3555.343,467.815,3417.049,482.564C3278.754,497.313,3304.385,508.127,3317.201,513.533L3330.017,518.94" id="L-FC-TP-0" class="edge-thickness-normal edge-pattern-solid flowchart-link LS-FC LE-TP" style="fill:none;" marker-end="url(#my-svg_flowchart-pointEnd)"/><path d="M4305.25,444.5L4296.701,451.5C4288.151,458.5,4271.053,472.5,4262.504,485.7C4253.955,498.9,4253.955,511.3,4253.955,517.5L4253.955,523.7" id="L-FC-RH-0" class="edge-thickness-normal edge-pattern-solid flowchart-link LS-FC LE-RH" style="fill:none;" marker-end="url(#my-svg_flowchart-pointEnd)"/><path d="M4469.01,444.5L4506.859,451.5C4544.709,458.5,4620.408,472.5,4658.258,485.7C4696.107,498.9,4696.107,511.3,4696.107,517.5L4696.107,523.7" id="L-FC-NS-0" class="edge-thickness-normal edge-pattern-solid flowchart-link LS-FC LE-NS" style="fill:none;" marker-end="url(#my-svg_flowchart-pointEnd)"/><path d="M3273.123,317L3273.123,322.75C3273.123,328.5,3273.123,340,3273.123,357C3273.123,374,3273.123,396.5,3273.123,419C3273.123,441.5,3273.123,464,3284.431,480.621C3295.74,497.242,3318.357,507.984,3329.665,513.355L3340.973,518.726" id="L-MT-TP-0" class="edge-thickness-normal edge-pattern-dotted flowchart-link LS-MT LE-TP" style="fill:none;stroke-width:2px;stroke-dasharray:3;" marker-end="url(#my-svg_flowchart-pointEnd)"/><path d="M1675.016,31.949L1430.556,39.124C1186.096,46.299,697.177,60.65,452.717,73.775C208.258,86.9,208.258,98.8,208.258,104.75L208.258,110.7" id="L-ROOT-PNP-0" class="edge-thickness-normal edge-pattern-solid flowchart-link LS-ROOT LE-PNP" style="fill:none;" marker-end="url(#my-svg_flowchart-pointEnd)"/><path d="M1675.016,34.144L1498.716,40.953C1322.417,47.763,969.818,61.381,793.518,74.141C617.219,86.9,617.219,98.8,617.219,104.75L617.219,110.7" id="L-ROOT-YM-0" class="edge-thickness-normal edge-pattern-solid flowchart-link LS-ROOT LE-YM" style="fill:none;" marker-end="url(#my-svg_flowchart-pointEnd)"/><path d="M1675.016,37.263L1553.594,43.552C1432.172,49.842,1189.328,62.421,1067.906,74.66C946.484,86.9,946.484,98.8,946.484,104.75L946.484,110.7" id="L-ROOT-HC-0" class="edge-thickness-normal edge-pattern-solid flowchart-link LS-ROOT LE-HC" style="fill:none;" marker-end="url(#my-svg_flowchart-pointEnd)"/><path d="M1675.016,44.19L1611.665,49.325C1548.314,54.46,1421.612,64.73,1358.261,74.482C1294.91,84.233,1294.91,93.467,1294.91,98.083L1294.91,102.7" id="L-ROOT-BSD-0" class="edge-thickness-normal edge-pattern-solid flowchart-link LS-ROOT LE-BSD" style="fill:none;" marker-end="url(#my-svg_flowchart-pointEnd)"/><path d="M1833.963,50L1820.997,54.167C1808.031,58.333,1782.1,66.667,1769.134,75.45C1756.168,84.233,1756.168,93.467,1756.168,98.083L1756.168,102.7" id="L-ROOT-MP-0" class="edge-thickness-normal edge-pattern-solid flowchart-link LS-ROOT LE-MP" style="fill:none;" marker-end="url(#my-svg_flowchart-pointEnd)"/><path d="M2148.5,49.999L2187.962,54.165C2227.423,58.332,2306.346,66.666,2345.808,74.116C2385.27,81.567,2385.27,88.133,2385.27,91.417L2385.27,94.7" id="L-ROOT-ZOO-0" class="edge-thickness-normal edge-pattern-solid flowchart-link LS-ROOT LE-ZOO" style="fill:none;" marker-end="url(#my-svg_flowchart-pointEnd)"/><path d="M2148.5,35.908L2289.913,42.423C2431.326,48.938,2714.151,61.969,2855.564,71.768C2996.977,81.567,2996.977,88.133,2996.977,91.417L2996.977,94.7" id="L-ROOT-CL-0" class="edge-thickness-normal edge-pattern-solid flowchart-link LS-ROOT LE-CL" style="fill:none;" marker-end="url(#my-svg_flowchart-pointEnd)"/><path d="M2148.5,30.778L2450.484,38.148C2752.469,45.519,3356.438,60.259,3658.422,78.63C3960.406,97,3960.406,119,3960.406,142.583C3960.406,166.167,3960.406,191.333,3960.406,215.167C3960.406,239,3960.406,261.5,3960.406,284C3960.406,306.5,3960.406,329,3960.406,345.117C3960.406,361.233,3960.406,370.967,3960.406,375.833L3960.406,380.7" id="L-ROOT-GEO-0" class="edge-thickness-normal edge-pattern-solid flowchart-link LS-ROOT LE-GEO" style="fill:none;" marker-end="url(#my-svg_flowchart-pointEnd)"/><path d="M3960.406,452L3960.406,457.75C3960.406,463.5,3960.406,475,3905.581,488.585C3850.755,502.17,3741.103,517.84,3686.278,525.674L3631.452,533.509" id="L-GEO-TP-0" class="edge-thickness-normal edge-pattern-dotted flowchart-link LS-GEO LE-TP" style="fill:none;stroke-width:2px;stroke-dasharray:3;" marker-end="url(#my-svg_flowchart-pointEnd)"/><path d="M2148.5,31.978L2391.782,39.148C2635.064,46.318,3121.628,60.659,3364.91,72.446C3608.191,84.233,3608.191,93.467,3608.191,98.083L3608.191,102.7" id="L-ROOT-WF-0" class="edge-thickness-normal edge-pattern-solid flowchart-link LS-ROOT LE-WF" style="fill:none;" marker-end="url(#my-svg_flowchart-pointEnd)"/><path d="M3608.191,174L3608.191,181.083C3608.191,188.167,3608.191,202.333,3580.514,214.992C3552.838,227.651,3497.484,238.802,3469.807,244.378L3442.13,249.953" id="L-WF-MT-0" class="edge-thickness-normal edge-pattern-dotted flowchart-link LS-WF LE-MT" style="fill:none;stroke-width:2px;stroke-dasharray:3;" marker-end="url(#my-svg_flowchart-pointEnd)"/></g><g class="edgeLabels"><g class="edgeLabel"><g class="label" transform="translate(0, 0)"><rect rx="0" ry="0" width="0" height="0"/><text style=""><tspan xml:space="preserve" dy="1em" x="0" class="row"/></text></g></g><g class="edgeLabel" transform="translate(4334.62890625, 351.5)"><g class="label" transform="translate(-350.734375, -9.5)"><rect rx="0" ry="0" width="701.0332641601562" height="19.00005340576172"/><text style=""><tspan xml:space="preserve" dy="1em" x="0" class="row">ДАВИТ НА АКСИОМУ: раз изнутри нельзя — первопричину только ПРИНЯТЬ извне, не вывести</tspan></text></g></g><g class="edgeLabel"><g class="label" transform="translate(0, 0)"><rect rx="0" ry="0" width="0" height="0"/><text style=""><tspan xml:space="preserve" dy="1em" x="0" class="row"/></text></g></g><g class="edgeLabel"><g class="label" transform="translate(0, 0)"><rect rx="0" ry="0" width="0" height="0"/><text style=""><tspan xml:space="preserve" dy="1em" x="0" class="row"/></text></g></g><g class="edgeLabel"><g class="label" transform="translate(0, 0)"><rect rx="0" ry="0" width="0" height="0"/><text style=""><tspan xml:space="preserve" dy="1em" x="0" class="row"/></text></g></g><g class="edgeLabel" transform="translate(3273.123046875, 419)"><g class="label" transform="translate(-273.06640625, -9.5)"><rect rx="0" ry="0" width="545.8114013671875" height="19.00005340576172"/><text style=""><tspan xml:space="preserve" dy="1em" x="0" class="row">несущая грань 🟡: несовместимость + граница ⟹ близнецы бесконечны</tspan></text></g></g><g class="edgeLabel"><g class="label" transform="translate(0, 0)"><rect rx="0" ry="0" width="0" height="0"/><text style=""><tspan xml:space="preserve" dy="1em" x="0" class="row"/></text></g></g><g class="edgeLabel"><g class="label" transform="translate(0, 0)"><rect rx="0" ry="0" width="0" height="0"/><text style=""><tspan xml:space="preserve" dy="1em" x="0" class="row"/></text></g></g><g class="edgeLabel"><g class="label" transform="translate(0, 0)"><rect rx="0" ry="0" width="0" height="0"/><text style=""><tspan xml:space="preserve" dy="1em" x="0" class="row"/></text></g></g><g class="edgeLabel"><g class="label" transform="translate(0, 0)"><rect rx="0" ry="0" width="0" height="0"/><text style=""><tspan xml:space="preserve" dy="1em" x="0" class="row"/></text></g></g><g class="edgeLabel"><g class="label" transform="translate(0, 0)"><rect rx="0" ry="0" width="0" height="0"/><text style=""><tspan xml:space="preserve" dy="1em" x="0" class="row"/></text></g></g><g class="edgeLabel"><g class="label" transform="translate(0, 0)"><rect rx="0" ry="0" width="0" height="0"/><text style=""><tspan xml:space="preserve" dy="1em" x="0" class="row"/></text></g></g><g class="edgeLabel"><g class="label" transform="translate(0, 0)"><rect rx="0" ry="0" width="0" height="0"/><text style=""><tspan xml:space="preserve" dy="1em" x="0" class="row"/></text></g></g><g class="edgeLabel"><g class="label" transform="translate(0, 0)"><rect rx="0" ry="0" width="0" height="0"/><text style=""><tspan xml:space="preserve" dy="1em" x="0" class="row"/></text></g></g><g class="edgeLabel" transform="translate(3960.40625, 486.5)"><g class="label" transform="translate(-93.6171875, -9.5)"><rect rx="0" ry="0" width="187.1255340576172" height="19.00005340576172"/><text style=""><tspan xml:space="preserve" dy="1em" x="0" class="row">та же граница близнецов</tspan></text></g></g><g class="edgeLabel"><g class="label" transform="translate(0, 0)"><rect rx="0" ry="0" width="0" height="0"/><text style=""><tspan xml:space="preserve" dy="1em" x="0" class="row"/></text></g></g><g class="edgeLabel" transform="translate(3608.19140625, 216.5)"><g class="label" transform="translate(-86.51953125, -9.5)"><rect rx="0" ry="0" width="172.936279296875" height="19.00005340576172"/><text style=""><tspan xml:space="preserve" dy="1em" x="0" class="row">подпирает один запрет</tspan></text></g></g></g><g class="nodes"><g class="node default green flowchart-label" id="flowchart-ROOT-0" data-node="true" data-id="ROOT" transform="translate(1911.7578125, 25)"><rect class="basic label-container" style="" rx="0" ry="0" x="-236.7421875" y="-25" width="473.484375" height="50"/><g class="label" style="" transform="translate(0, -17.5)"><rect/><text style=""><tspan xml:space="preserve" dy="1em" x="0" class="row">⚙️ no_infinite_descent · EPMI</tspan><tspan xml:space="preserve" dy="1em" x="0" class="row">вечный двигатель Евклида невозможен · голое ядро Lean 🟢</tspan></text></g></g><g class="node default apex flowchart-label" id="flowchart-MT-2" data-node="true" data-id="MT" transform="translate(3273.123046875, 284)"><rect class="basic label-container" style="" rx="0" ry="0" x="-315.2109375" y="-33" width="630.421875" height="66"/><g class="label" style="" transform="translate(0, -25.5)"><rect/><text style=""><tspan xml:space="preserve" dy="1em" x="0" class="row">★ ГЛАВНАЯ ТЕОРЕМА · higherEnergyIncompatibility_main 🟢 · ядро БЕЗ аксиомы</tspan><tspan xml:space="preserve" dy="1em" x="0" class="row">знать первопричину изнутри = вечный двигатель (запрещён)</tspan><tspan xml:space="preserve" dy="1em" x="0" class="row">⟹ первопричина непознаваема; изнутри близнецов ни доказать, ни опровергнуть</tspan></text></g></g><g class="node default rootnode flowchart-label" id="flowchart-FC-4" data-node="true" data-id="FC" transform="translate(4334.62890625, 419)"><polygon points="12.5,0 349.1328125,0 361.6328125,-25 349.1328125,-50 12.5,-50 0,-25" class="label-container" transform="translate(-180.81640625,25)" style=""/><g class="label" style="" transform="translate(0, -17.5)"><rect/><text style=""><tspan xml:space="preserve" dy="1em" x="0" class="row">step00FirstCause · ЕДИНСТВЕННАЯ аксиома</tspan><tspan xml:space="preserve" dy="1em" x="0" class="row">первопричина 0 → 1 · три ЖИВЫЕ границы</tspan></text></g></g><g class="node default yellow flowchart-label" id="flowchart-TP-6" data-node="true" data-id="TP" transform="translate(3432.083984375, 562)"><rect class="basic label-container" style="" rx="0" ry="0" x="-194.12109375" y="-41" width="388.2421875" height="82"/><g class="label" style="" transform="translate(0, -33.5)"><rect/><text style=""><tspan xml:space="preserve" dy="1em" x="0" class="row">Близнецы 🟡 · взято</tspan><tspan xml:space="preserve" dy="1em" x="0" class="row">НЕ атакуемо как Коллатц: неприводимый узел,</tspan><tspan xml:space="preserve" dy="1em" x="0" class="row">закон ⟺ гипотеза · барьер несовместимости</tspan><tspan xml:space="preserve" dy="1em" x="0" class="row">(refute⟹двигатель требует decree-стабильности)</tspan></text></g></g><g class="node default yellow flowchart-label" id="flowchart-RH-8" data-node="true" data-id="RH" transform="translate(4253.955078125, 562)"><rect class="basic label-container" style="" rx="0" ry="0" x="-187.41796875" y="-33" width="374.8359375" height="66"/><g class="label" style="" transform="translate(0, -25.5)"><rect/><text style=""><tspan xml:space="preserve" dy="1em" x="0" class="row">Риман 🟡 · взято</tspan><tspan xml:space="preserve" dy="1em" x="0" class="row">НЕ атакуемо: RiemannManifestationLaw ⟺ RH</tspan><tspan xml:space="preserve" dy="1em" x="0" class="row">опровергнуть = внекритический ноль (не над ℕ)</tspan></text></g></g><g class="node default yellow flowchart-label" id="flowchart-NS-10" data-node="true" data-id="NS" transform="translate(4696.107421875, 562)"><rect class="basic label-container" style="" rx="0" ry="0" x="-204.734375" y="-33" width="409.46875" height="66"/><g class="label" style="" transform="translate(0, -25.5)"><rect/><text style=""><tspan xml:space="preserve" dy="1em" x="0" class="row">Навье–Стокс 🟡 · взято</tspan><tspan xml:space="preserve" dy="1em" x="0" class="row">НЕ атакуемо: свидетель ≥ проблема Лиувилля Галди</tspan><tspan xml:space="preserve" dy="1em" x="0" class="row">нет ⟺-зеркала, нет разрешимого предиката</tspan></text></g></g><g class="node default green flowchart-label" id="flowchart-PNP-14" data-node="true" data-id="PNP" transform="translate(208.2578125, 141)"><rect class="basic label-container" style="" rx="0" ry="0" x="-208.2578125" y="-25" width="416.515625" height="50"/><g class="label" style="" transform="translate(0, -17.5)"><rect/><text style=""><tspan xml:space="preserve" dy="1em" x="0" class="row">P/NP 🟢</tspan><tspan xml:space="preserve" dy="1em" x="0" class="row">ранго-быстрый проезд ≠ полная оплата сертификатов</tspan></text></g></g><g class="node default green flowchart-label" id="flowchart-YM-16" data-node="true" data-id="YM" transform="translate(617.21875, 141)"><rect class="basic label-container" style="" rx="0" ry="0" x="-150.703125" y="-25" width="301.40625" height="50"/><g class="label" style="" transform="translate(0, -17.5)"><rect/><text style=""><tspan xml:space="preserve" dy="1em" x="0" class="row">Янг–Миллс 🟢</tspan><tspan xml:space="preserve" dy="1em" x="0" class="row">квантованность спектра ⟺ масс-щель</tspan></text></g></g><g class="node default green flowchart-label" id="flowchart-HC-18" data-node="true" data-id="HC" transform="translate(946.484375, 141)"><rect class="basic label-container" style="" rx="0" ry="0" x="-128.5625" y="-25" width="257.125" height="50"/><g class="label" style="" transform="translate(0, -17.5)"><rect/><text style=""><tspan xml:space="preserve" dy="1em" x="0" class="row">Ходж 🟢</tspan><tspan xml:space="preserve" dy="1em" x="0" class="row">закон спуска ⟺ оплата циклами</tspan></text></g></g><g class="node default green flowchart-label" id="flowchart-BSD-20" data-node="true" data-id="BSD" transform="translate(1294.91015625, 141)"><rect class="basic label-container" style="" rx="0" ry="0" x="-169.86328125" y="-33" width="339.7265625" height="66"/><g class="label" style="" transform="translate(0, -25.5)"><rect/><text style=""><tspan xml:space="preserve" dy="1em" x="0" class="row">Бёрч–Свиннертон-Дайер 🟢/🔴 · 8-я маска</tspan><tspan xml:space="preserve" dy="1em" x="0" class="row">спуск-без-двигателя на реальной кривой</tspan><tspan xml:space="preserve" dy="1em" x="0" class="row">🔴 аналит. ранг = ord L (вне mathlib)</tspan></text></g></g><g class="node default deferred flowchart-label" id="flowchart-MP-22" data-node="true" data-id="MP" transform="translate(1756.16796875, 141)"><rect class="basic label-container" style="" rx="0" ry="0" x="-241.39453125" y="-33" width="482.7890625" height="66"/><g class="label" style="" transform="translate(0, -25.5)"><rect/><text style=""><tspan xml:space="preserve" dy="1em" x="0" class="row">Мерсенн ⏸️ · ОТЛОЖЕН</tspan><tspan xml:space="preserve" dy="1em" x="0" class="row">причина отказа: знак эвристики отрицателен</tspan><tspan xml:space="preserve" dy="1em" x="0" class="row">(Σ по парам сходится; 5∣2^p−3) · свидетель ≥ 29, непредъявим</tspan></text></g></g><g class="node default green flowchart-label" id="flowchart-ZOO-24" data-node="true" data-id="ZOO" transform="translate(2385.26953125, 141)"><rect class="basic label-container" style="" rx="0" ry="0" x="-337.70703125" y="-41" width="675.4140625" height="82"/><g class="label" style="" transform="translate(0, -33.5)"><rect/><text style=""><tspan xml:space="preserve" dy="1em" x="0" class="row">Арифметический зоопарк 🟢 · поля НЕ взяты (§17)</tspan><tspan xml:space="preserve" dy="1em" x="0" class="row">Полиньяк · Софи Жермен — знак «за»</tspan><tspan xml:space="preserve" dy="1em" x="0" class="row">Гольдбах · Лежандр · совершенные — свидетель decide (сильнейшая непредъявимость)</tspan><tspan xml:space="preserve" dy="1em" x="0" class="row">Ферма ⏸️ — знак «против» (строго сильнее близнецов)</tspan></text></g></g><g class="node default fallen flowchart-label" id="flowchart-CL-26" data-node="true" data-id="CL" transform="translate(2996.9765625, 141)"><rect class="basic label-container" style="" rx="0" ry="0" x="-224" y="-41" width="448" height="82"/><g class="label" style="" transform="translate(0, -33.5)"><rect/><text style=""><tspan xml:space="preserve" dy="1em" x="0" class="row">Коллатц ✗ · ДЕКРЕТ ПАЛ</tspan><tspan xml:space="preserve" dy="1em" x="0" class="row">причина: канат-закон был сверх-сильным + разрешимым</tspan><tspan xml:space="preserve" dy="1em" x="0" class="row">опровергнут при n=27 (ropeLaw_universal_refuted, decide)</tspan><tspan xml:space="preserve" dy="1em" x="0" class="row">граница снята, гипотеза открыта</tspan></text></g></g><g class="node default green flowchart-label" id="flowchart-GEO-28" data-node="true" data-id="GEO" transform="translate(3960.40625, 419)"><rect class="basic label-container" style="" rx="0" ry="0" x="-143.40625" y="-33" width="286.8125" height="66"/><g class="label" style="" transform="translate(0, -25.5)"><rect/><text style=""><tspan xml:space="preserve" dy="1em" x="0" class="row">Геометрия пути 🟢</tspan><tspan xml:space="preserve" dy="1em" x="0" class="row">стрела · кривизна κ=1−outdeg (χ=−5)</tspan><tspan xml:space="preserve" dy="1em" x="0" class="row">флип ± ⟂ время (C, не T)</tspan></text></g></g><g class="node default green flowchart-label" id="flowchart-WF-32" data-node="true" data-id="WF" transform="translate(3608.19140625, 141)"><rect class="basic label-container" style="" rx="0" ry="0" x="-317.21484375" y="-33" width="634.4296875" height="66"/><g class="label" style="" transform="translate(0, -25.5)"><rect/><text style=""><tspan xml:space="preserve" dy="1em" x="0" class="row">Канон вполне-фундированности 🟢</tspan><tspan xml:space="preserve" dy="1em" x="0" class="row">Гудстейн/гидра (ω-червь, трансфинитный ранг) · спуск Маркова · линия Пуанкаре</tspan><tspan xml:space="preserve" dy="1em" x="0" class="row">двигатель доходит до классики завершаемости</tspan></text></g></g></g></g></g></svg>