<svg id="my-svg" width="4746.8125" xmlns="http://www.w3.org/2000/svg" xmlns:xlink="http://www.w3.org/1999/xlink" height="619" viewBox="-8 -8 4746.8125 619" role="graphics-document document" aria-roledescription="flowchart-v2" style="background-color: transparent;"><style>#my-svg{font-family:-apple-system,Segoe UI,Roboto,sans-serif;font-size:16px;fill:#ccc;}#my-svg .error-icon{fill:#a44141;}#my-svg .error-text{fill:#ddd;stroke:#ddd;}#my-svg .edge-thickness-normal{stroke-width:2px;}#my-svg .edge-thickness-thick{stroke-width:3.5px;}#my-svg .edge-pattern-solid{stroke-dasharray:0;}#my-svg .edge-pattern-dashed{stroke-dasharray:3;}#my-svg .edge-pattern-dotted{stroke-dasharray:2;}#my-svg .marker{fill:lightgrey;stroke:lightgrey;}#my-svg .marker.cross{stroke:lightgrey;}#my-svg svg{font-family:-apple-system,Segoe UI,Roboto,sans-serif;font-size:16px;}#my-svg .label{font-family:-apple-system,Segoe UI,Roboto,sans-serif;color:#ccc;}#my-svg .cluster-label text{fill:#F9FFFE;}#my-svg .cluster-label span,#my-svg p{color:#F9FFFE;}#my-svg .label text,#my-svg span,#my-svg p{fill:#ccc;color:#ccc;}#my-svg .node rect,#my-svg .node circle,#my-svg .node ellipse,#my-svg .node polygon,#my-svg .node path{fill:#1f2020;stroke:#81B1DB;stroke-width:1px;}#my-svg .flowchart-label text{text-anchor:middle;}#my-svg .node .katex path{fill:#000;stroke:#000;stroke-width:1px;}#my-svg .node .label{text-align:center;}#my-svg .node.clickable{cursor:pointer;}#my-svg .arrowheadPath{fill:lightgrey;}#my-svg .edgePath .path{stroke:lightgrey;stroke-width:2.0px;}#my-svg .flowchart-link{stroke:lightgrey;fill:none;}#my-svg .edgeLabel{background-color:hsl(0, 0%, 34.4117647059%);text-align:center;}#my-svg .edgeLabel rect{opacity:0.5;background-color:hsl(0, 0%, 34.4117647059%);fill:hsl(0, 0%, 34.4117647059%);}#my-svg .labelBkg{background-color:rgba(87.75, 87.75, 87.75, 0.5);}#my-svg .cluster rect{fill:hsl(180, 1.5873015873%, 28.3529411765%);stroke:rgba(255, 255, 255, 0.25);stroke-width:1px;}#my-svg .cluster text{fill:#F9FFFE;}#my-svg .cluster span,#my-svg p{color:#F9FFFE;}#my-svg div.mermaidTooltip{position:absolute;text-align:center;max-width:200px;padding:2px;font-family:-apple-system,Segoe UI,Roboto,sans-serif;font-size:12px;background:hsl(20, 1.5873015873%, 12.3529411765%);border:1px solid rgba(255, 255, 255, 0.25);border-radius:2px;pointer-events:none;z-index:100;}#my-svg .flowchartTitleText{text-anchor:middle;font-size:18px;fill:#ccc;}#my-svg :root{--mermaid-font-family:-apple-system,Segoe UI,Roboto,sans-serif;}#my-svg .green rect{fill:rgb(11, 61, 11)!important;stroke:rgb(76, 175, 80)!important;color:rgb(234, 255, 234)!important;}#my-svg .green polygon{fill:rgb(11, 61, 11)!important;stroke:rgb(76, 175, 80)!important;color:rgb(234, 255, 234)!important;}#my-svg .green ellipse{fill:rgb(11, 61, 11)!important;stroke:rgb(76, 175, 80)!important;color:rgb(234, 255, 234)!important;}#my-svg .green circle{fill:rgb(11, 61, 11)!important;stroke:rgb(76, 175, 80)!important;color:rgb(234, 255, 234)!important;}#my-svg .green path{fill:rgb(11, 61, 11)!important;stroke:rgb(76, 175, 80)!important;color:rgb(234, 255, 234)!important;}#my-svg .green tspan{fill:rgb(234, 255, 234)!important;}#my-svg .apex rect{fill:rgb(11, 61, 11)!important;stroke:rgb(255, 215, 0)!important;stroke-width:2px!important;color:rgb(234, 255, 234)!important;}#my-svg .apex polygon{fill:rgb(11, 61, 11)!important;stroke:rgb(255, 215, 0)!important;stroke-width:2px!important;color:rgb(234, 255, 234)!important;}#my-svg .apex ellipse{fill:rgb(11, 61, 11)!important;stroke:rgb(255, 215, 0)!important;stroke-width:2px!important;color:rgb(234, 255, 234)!important;}#my-svg .apex circle{fill:rgb(11, 61, 11)!important;stroke:rgb(255, 215, 0)!important;stroke-width:2px!important;color:rgb(234, 255, 234)!important;}#my-svg .apex path{fill:rgb(11, 61, 11)!important;stroke:rgb(255, 215, 0)!important;stroke-width:2px!important;color:rgb(234, 255, 234)!important;}#my-svg .apex tspan{fill:rgb(234, 255, 234)!important;}#my-svg .yellow rect{fill:rgb(77, 59, 0)!important;stroke:rgb(255, 193, 7)!important;color:rgb(255, 248, 225)!important;}#my-svg .yellow polygon{fill:rgb(77, 59, 0)!important;stroke:rgb(255, 193, 7)!important;color:rgb(255, 248, 225)!important;}#my-svg .yellow ellipse{fill:rgb(77, 59, 0)!important;stroke:rgb(255, 193, 7)!important;color:rgb(255, 248, 225)!important;}#my-svg .yellow circle{fill:rgb(77, 59, 0)!important;stroke:rgb(255, 193, 7)!important;color:rgb(255, 248, 225)!important;}#my-svg .yellow path{fill:rgb(77, 59, 0)!important;stroke:rgb(255, 193, 7)!important;color:rgb(255, 248, 225)!important;}#my-svg .yellow tspan{fill:rgb(255, 248, 225)!important;}#my-svg .deferred rect{fill:rgb(42, 42, 42)!important;stroke:rgb(158, 158, 158)!important;color:rgb(224, 224, 224)!important;stroke-dasharray:6,4!important;}#my-svg .deferred polygon{fill:rgb(42, 42, 42)!important;stroke:rgb(158, 158, 158)!important;color:rgb(224, 224, 224)!important;stroke-dasharray:6,4!important;}#my-svg .deferred ellipse{fill:rgb(42, 42, 42)!important;stroke:rgb(158, 158, 158)!important;color:rgb(224, 224, 224)!important;stroke-dasharray:6,4!important;}#my-svg .deferred circle{fill:rgb(42, 42, 42)!important;stroke:rgb(158, 158, 158)!important;color:rgb(224, 224, 224)!important;stroke-dasharray:6,4!important;}#my-svg .deferred path{fill:rgb(42, 42, 42)!important;stroke:rgb(158, 158, 158)!important;color:rgb(224, 224, 224)!important;stroke-dasharray:6,4!important;}#my-svg .deferred tspan{fill:rgb(224, 224, 224)!important;}#my-svg .fallen rect{fill:rgb(61, 11, 11)!important;stroke:rgb(229, 115, 115)!important;color:rgb(255, 235, 238)!important;}#my-svg .fallen polygon{fill:rgb(61, 11, 11)!important;stroke:rgb(229, 115, 115)!important;color:rgb(255, 235, 238)!important;}#my-svg .fallen ellipse{fill:rgb(61, 11, 11)!important;stroke:rgb(229, 115, 115)!important;color:rgb(255, 235, 238)!important;}#my-svg .fallen circle{fill:rgb(61, 11, 11)!important;stroke:rgb(229, 115, 115)!important;color:rgb(255, 235, 238)!important;}#my-svg .fallen path{fill:rgb(61, 11, 11)!important;stroke:rgb(229, 115, 115)!important;color:rgb(255, 235, 238)!important;}#my-svg .fallen tspan{fill:rgb(255, 235, 238)!important;}#my-svg .rootnode rect{fill:rgb(26, 26, 26)!important;stroke:rgb(136, 136, 136)!important;color:rgb(255, 255, 255)!important;}#my-svg .rootnode polygon{fill:rgb(26, 26, 26)!important;stroke:rgb(136, 136, 136)!important;color:rgb(255, 255, 255)!important;}#my-svg .rootnode ellipse{fill:rgb(26, 26, 26)!important;stroke:rgb(136, 136, 136)!important;color:rgb(255, 255, 255)!important;}#my-svg .rootnode circle{fill:rgb(26, 26, 26)!important;stroke:rgb(136, 136, 136)!important;color:rgb(255, 255, 255)!important;}#my-svg .rootnode path{fill:rgb(26, 26, 26)!important;stroke:rgb(136, 136, 136)!important;color:rgb(255, 255, 255)!important;}#my-svg .rootnode tspan{fill:rgb(255, 255, 255)!important;}</style><g><marker id="my-svg_flowchart-pointEnd" class="marker flowchart" viewBox="0 0 10 10" refX="6" refY="5" markerUnits="userSpaceOnUse" markerWidth="12" markerHeight="12" orient="auto"><path d="M 0 0 L 10 5 L 0 10 z" class="arrowMarkerPath" style="stroke-width: 1; stroke-dasharray: 1, 0;"/></marker><marker id="my-svg_flowchart-pointStart" class="marker flowchart" viewBox="0 0 10 10" refX="4.5" refY="5" markerUnits="userSpaceOnUse" markerWidth="12" markerHeight="12" orient="auto"><path d="M 0 5 L 10 10 L 10 0 z" class="arrowMarkerPath" style="stroke-width: 1; stroke-dasharray: 1, 0;"/></marker><marker id="my-svg_flowchart-circleEnd" class="marker flowchart" viewBox="0 0 10 10" refX="11" refY="5" markerUnits="userSpaceOnUse" markerWidth="11" markerHeight="11" orient="auto"><circle cx="5" cy="5" r="5" class="arrowMarkerPath" style="stroke-width: 1; stroke-dasharray: 1, 0;"/></marker><marker id="my-svg_flowchart-circleStart" class="marker flowchart" viewBox="0 0 10 10" refX="-1" refY="5" markerUnits="userSpaceOnUse" markerWidth="11" markerHeight="11" orient="auto"><circle cx="5" cy="5" r="5" class="arrowMarkerPath" style="stroke-width: 1; stroke-dasharray: 1, 0;"/></marker><marker id="my-svg_flowchart-crossEnd" class="marker cross flowchart" viewBox="0 0 11 11" refX="12" refY="5.2" markerUnits="userSpaceOnUse" markerWidth="11" markerHeight="11" orient="auto"><path d="M 1,1 l 9,9 M 10,1 l -9,9" class="arrowMarkerPath" style="stroke-width: 2; stroke-dasharray: 1, 0;"/></marker><marker id="my-svg_flowchart-crossStart" class="marker cross flowchart" viewBox="0 0 11 11" refX="-1" refY="5.2" markerUnits="userSpaceOnUse" markerWidth="11" markerHeight="11" orient="auto"><path d="M 1,1 l 9,9 M 10,1 l -9,9" class="arrowMarkerPath" style="stroke-width: 2; stroke-dasharray: 1, 0;"/></marker><g class="root"><g class="clusters"/><g class="edgePaths"><path d="M2115.1,34.874L2264.817,41.562C2414.535,48.249,2713.971,61.625,2863.688,79.312C3013.406,97,3013.406,119,3013.406,142.583C3013.406,166.167,3013.406,191.333,3021.55,209.187C3029.693,227.04,3045.981,237.58,3054.124,242.85L3062.268,248.121" id="L-ROOT-MT-0" class="edge-thickness-normal edge-pattern-solid flowchart-link LS-ROOT LE-MT" style="fill:none;" marker-end="url(#my-svg_flowchart-pointEnd)"/><path d="M3437.027,305.515L3550.777,313.179C3664.526,320.843,3892.025,336.172,4005.847,350.119C4119.67,364.067,4119.816,376.634,4119.889,382.917L4119.962,389.2" id="L-MT-FC-0" class="edge-thickness-thick edge-pattern-solid flowchart-link LS-MT LE-FC" style="stroke-width: 3.5px;fill:none;" marker-end="url(#my-svg_flowchart-pointEnd)"/><path d="M3949.643,430.755L3807.654,440.046C3665.666,449.337,3381.688,467.918,3254.171,482.648C3126.653,497.378,3155.595,508.257,3170.067,513.696L3184.538,519.135" id="L-FC-TP-0" class="edge-thickness-normal edge-pattern-solid flowchart-link LS-FC LE-TP" style="fill:none;" marker-end="url(#my-svg_flowchart-pointEnd)"/><path d="M4120.023,444.5L4119.94,451.5C4119.857,458.5,4119.69,472.5,4119.607,485.7C4119.523,498.9,4119.523,511.3,4119.523,517.5L4119.523,523.7" id="L-FC-RH-0" class="edge-thickness-normal edge-pattern-solid flowchart-link LS-FC LE-RH" style="fill:none;" marker-end="url(#my-svg_flowchart-pointEnd)"/><path d="M4276.979,444.5L4321.367,451.5C4365.755,458.5,4454.53,472.5,4498.917,485.7C4543.305,498.9,4543.305,511.3,4543.305,517.5L4543.305,523.7" id="L-FC-NS-0" class="edge-thickness-normal edge-pattern-solid flowchart-link LS-FC LE-NS" style="fill:none;" marker-end="url(#my-svg_flowchart-pointEnd)"/><path d="M3117.711,317L3117.711,322.75C3117.711,328.5,3117.711,340,3117.711,357C3117.711,374,3117.711,396.5,3117.711,419C3117.711,441.5,3117.711,464,3130.671,480.66C3143.63,497.319,3169.549,508.139,3182.509,513.549L3195.469,518.958" id="L-MT-TP-0" class="edge-thickness-normal edge-pattern-dotted flowchart-link LS-MT LE-TP" style="fill:none;stroke-width:2px;stroke-dasharray:3;" marker-end="url(#my-svg_flowchart-pointEnd)"/><path d="M1672.99,31.407L1422.325,38.673C1171.66,45.938,670.33,60.469,419.665,73.685C169,86.9,169,98.8,169,104.75L169,110.7" id="L-ROOT-PNP-0" class="edge-thickness-normal edge-pattern-solid flowchart-link LS-ROOT LE-PNP" style="fill:none;" marker-end="url(#my-svg_flowchart-pointEnd)"/><path d="M1672.99,33.032L1480.485,40.027C1287.979,47.021,902.968,61.011,710.463,73.955C517.957,86.9,517.957,98.8,517.957,104.75L517.957,110.7" id="L-ROOT-YM-0" class="edge-thickness-normal edge-pattern-solid flowchart-link LS-ROOT LE-YM" style="fill:none;" marker-end="url(#my-svg_flowchart-pointEnd)"/><path d="M1672.99,35.378L1532.334,41.982C1391.677,48.585,1110.364,61.793,969.707,74.346C829.051,86.9,829.051,98.8,829.051,104.75L829.051,110.7" id="L-ROOT-HC-0" class="edge-thickness-normal edge-pattern-solid flowchart-link LS-ROOT LE-HC" style="fill:none;" marker-end="url(#my-svg_flowchart-pointEnd)"/><path d="M1672.99,40.754L1592.906,46.462C1512.822,52.17,1352.653,63.585,1272.569,73.909C1192.484,84.233,1192.484,93.467,1192.484,98.083L1192.484,102.7" id="L-ROOT-BSD-0" class="edge-thickness-normal edge-pattern-solid flowchart-link LS-ROOT LE-BSD" style="fill:none;" marker-end="url(#my-svg_flowchart-pointEnd)"/><path d="M1777.06,50L1757.562,54.167C1738.064,58.333,1699.069,66.667,1679.572,75.45C1660.074,84.233,1660.074,93.467,1660.074,98.083L1660.074,102.7" id="L-ROOT-MP-0" class="edge-thickness-normal edge-pattern-solid flowchart-link LS-ROOT LE-MP" style="fill:none;" marker-end="url(#my-svg_flowchart-pointEnd)"/><path d="M2066.04,50L2094.706,54.167C2123.372,58.333,2180.703,66.667,2209.369,74.117C2238.035,81.567,2238.035,88.133,2238.035,91.417L2238.035,94.7" id="L-ROOT-ZOO-0" class="edge-thickness-normal edge-pattern-solid flowchart-link LS-ROOT LE-ZOO" style="fill:none;" marker-end="url(#my-svg_flowchart-pointEnd)"/><path d="M2115.1,37.482L2225.842,43.735C2336.585,49.988,2558.07,62.494,2668.812,72.03C2779.555,81.567,2779.555,88.133,2779.555,91.417L2779.555,94.7" id="L-ROOT-CL-0" class="edge-thickness-normal edge-pattern-solid flowchart-link LS-ROOT LE-CL" style="fill:none;" marker-end="url(#my-svg_flowchart-pointEnd)"/><path d="M2115.1,31.292L2371.027,38.577C2626.954,45.861,3138.809,60.431,3394.737,78.715C3650.664,97,3650.664,119,3650.664,142.583C3650.664,166.167,3650.664,191.333,3650.664,215.167C3650.664,239,3650.664,261.5,3650.664,284C3650.664,306.5,3650.664,329,3650.664,345.117C3650.664,361.233,3650.664,370.967,3650.664,375.833L3650.664,380.7" id="L-ROOT-GEO-0" class="edge-thickness-normal edge-pattern-solid flowchart-link LS-ROOT LE-GEO" style="fill:none;" marker-end="url(#my-svg_flowchart-pointEnd)"/><path d="M3650.664,452L3650.664,457.75C3650.664,463.5,3650.664,475,3621.108,487.088C3591.551,499.176,3532.438,511.852,3502.881,518.19L3473.325,524.528" id="L-GEO-TP-0" class="edge-thickness-normal edge-pattern-dotted flowchart-link LS-GEO LE-TP" style="fill:none;stroke-width:2px;stroke-dasharray:3;" marker-end="url(#my-svg_flowchart-pointEnd)"/><path d="M2115.1,32.686L2317.922,39.739C2520.745,46.791,2926.39,60.895,3129.213,72.564C3332.035,84.233,3332.035,93.467,3332.035,98.083L3332.035,102.7" id="L-ROOT-WF-0" class="edge-thickness-normal edge-pattern-solid flowchart-link LS-ROOT LE-WF" style="fill:none;" marker-end="url(#my-svg_flowchart-pointEnd)"/><path d="M3332.035,174L3332.035,181.083C3332.035,188.167,3332.035,202.333,3314.62,214.901C3297.206,227.469,3262.376,238.439,3244.962,243.923L3227.547,249.408" id="L-WF-MT-0" class="edge-thickness-normal edge-pattern-dotted flowchart-link LS-WF LE-MT" style="fill:none;stroke-width:2px;stroke-dasharray:3;" marker-end="url(#my-svg_flowchart-pointEnd)"/></g><g class="edgeLabels"><g class="edgeLabel"><g class="label" transform="translate(0, 0)"><rect rx="0" ry="0" width="0" height="0"/><text style=""><tspan xml:space="preserve" dy="1em" x="0" class="row"/></text></g></g><g class="edgeLabel" transform="translate(4119.5234375, 351.5)"><g class="label" transform="translate(-448.859375, -9.5)"><rect rx="0" ry="0" width="897.71875" height="19"/><text style=""><tspan xml:space="preserve" dy="1em" x="0" class="row">PRESSES ON THE AXIOM: since it is impossible from within, the first cause can only be ACCEPTED from outside, never derived</tspan></text></g></g><g class="edgeLabel"><g class="label" transform="translate(0, 0)"><rect rx="0" ry="0" width="0" height="0"/><text style=""><tspan xml:space="preserve" dy="1em" x="0" class="row"/></text></g></g><g class="edgeLabel"><g class="label" transform="translate(0, 0)"><rect rx="0" ry="0" width="0" height="0"/><text style=""><tspan xml:space="preserve" dy="1em" x="0" class="row"/></text></g></g><g class="edgeLabel"><g class="label" transform="translate(0, 0)"><rect rx="0" ry="0" width="0" height="0"/><text style=""><tspan xml:space="preserve" dy="1em" x="0" class="row"/></text></g></g><g class="edgeLabel" transform="translate(3117.7109375, 419)"><g class="label" transform="translate(-254.11328125, -9.5)"><rect rx="0" ry="0" width="508.2265625" height="19"/><text style=""><tspan xml:space="preserve" dy="1em" x="0" class="row">load-bearing face 🟡: incompatibility + boundary ⟹ twins are infinite</tspan></text></g></g><g class="edgeLabel"><g class="label" transform="translate(0, 0)"><rect rx="0" ry="0" width="0" height="0"/><text style=""><tspan xml:space="preserve" dy="1em" x="0" class="row"/></text></g></g><g class="edgeLabel"><g class="label" transform="translate(0, 0)"><rect rx="0" ry="0" width="0" height="0"/><text style=""><tspan xml:space="preserve" dy="1em" x="0" class="row"/></text></g></g><g class="edgeLabel"><g class="label" transform="translate(0, 0)"><rect rx="0" ry="0" width="0" height="0"/><text style=""><tspan xml:space="preserve" dy="1em" x="0" class="row"/></text></g></g><g class="edgeLabel"><g class="label" transform="translate(0, 0)"><rect rx="0" ry="0" width="0" height="0"/><text style=""><tspan xml:space="preserve" dy="1em" x="0" class="row"/></text></g></g><g class="edgeLabel"><g class="label" transform="translate(0, 0)"><rect rx="0" ry="0" width="0" height="0"/><text style=""><tspan xml:space="preserve" dy="1em" x="0" class="row"/></text></g></g><g class="edgeLabel"><g class="label" transform="translate(0, 0)"><rect rx="0" ry="0" width="0" height="0"/><text style=""><tspan xml:space="preserve" dy="1em" x="0" class="row"/></text></g></g><g class="edgeLabel"><g class="label" transform="translate(0, 0)"><rect rx="0" ry="0" width="0" height="0"/><text style=""><tspan xml:space="preserve" dy="1em" x="0" class="row"/></text></g></g><g class="edgeLabel"><g class="label" transform="translate(0, 0)"><rect rx="0" ry="0" width="0" height="0"/><text style=""><tspan xml:space="preserve" dy="1em" x="0" class="row"/></text></g></g><g class="edgeLabel" transform="translate(3650.6640625, 486.5)"><g class="label" transform="translate(-87.12109375, -9.5)"><rect rx="0" ry="0" width="174.2421875" height="19"/><text style=""><tspan xml:space="preserve" dy="1em" x="0" class="row">the same twin boundary</tspan></text></g></g><g class="edgeLabel"><g class="label" transform="translate(0, 0)"><rect rx="0" ry="0" width="0" height="0"/><text style=""><tspan xml:space="preserve" dy="1em" x="0" class="row"/></text></g></g><g class="edgeLabel" transform="translate(3332.03515625, 216.5)"><g class="label" transform="translate(-106.6796875, -9.5)"><rect rx="0" ry="0" width="213.359375" height="19"/><text style=""><tspan xml:space="preserve" dy="1em" x="0" class="row">underpins the one prohibition</tspan></text></g></g></g><g class="nodes"><g class="node default green flowchart-label" id="flowchart-ROOT-0" data-node="true" data-id="ROOT" transform="translate(1894.044921875, 25)"><rect class="basic label-container" style="" rx="0" ry="0" x="-221.0546875" y="-25" width="442.109375" height="50"/><g class="label" style="" transform="translate(0, -17.5)"><rect/><text style=""><tspan xml:space="preserve" dy="1em" x="0" class="row">⚙️ no_infinite_descent · EPMI</tspan><tspan xml:space="preserve" dy="1em" x="0" class="row">Euclid’s perpetual engine is impossible · bare Lean core 🟢</tspan></text></g></g><g class="node default apex flowchart-label" id="flowchart-MT-2" data-node="true" data-id="MT" transform="translate(3117.7109375, 284)"><rect class="basic label-container" style="" rx="0" ry="0" x="-319.31640625" y="-33" width="638.6328125" height="66"/><g class="label" style="" transform="translate(0, -25.5)"><rect/><text style=""><tspan xml:space="preserve" dy="1em" x="0" class="row">★ MAIN THEOREM · higherEnergyIncompatibility_main 🟢 · core with NO axiom</tspan><tspan xml:space="preserve" dy="1em" x="0" class="row">knowing the first cause from within = a perpetual engine (forbidden)</tspan><tspan xml:space="preserve" dy="1em" x="0" class="row">⟹ the first cause is unknowable; from inside, twins can be neither proved nor refuted</tspan></text></g></g><g class="node default rootnode flowchart-label" id="flowchart-FC-4" data-node="true" data-id="FC" transform="translate(4119.5234375, 419)"><polygon points="12.5,0 339.515625,0 352.015625,-25 339.515625,-50 12.5,-50 0,-25" class="label-container" transform="translate(-176.0078125,25)" style=""/><g class="label" style="" transform="translate(0, -17.5)"><rect/><text style=""><tspan xml:space="preserve" dy="1em" x="0" class="row">step00FirstCause · the SINGLE axiom</tspan><tspan xml:space="preserve" dy="1em" x="0" class="row">first cause 0 → 1 · three LIVING boundaries</tspan></text></g></g><g class="node default yellow flowchart-label" id="flowchart-TP-6" data-node="true" data-id="TP" transform="translate(3298.580078125, 562)"><rect class="basic label-container" style="" rx="0" ry="0" x="-169.5625" y="-41" width="339.125" height="82"/><g class="label" style="" transform="translate(0, -33.5)"><rect/><text style=""><tspan xml:space="preserve" dy="1em" x="0" class="row">Twins 🟡 · taken</tspan><tspan xml:space="preserve" dy="1em" x="0" class="row">NOT Collatz-attackable: irreducible node,</tspan><tspan xml:space="preserve" dy="1em" x="0" class="row">law ⟺ conjecture · incompatibility barrier</tspan><tspan xml:space="preserve" dy="1em" x="0" class="row">(refute⟹engine needs the decreed stability)</tspan></text></g></g><g class="node default yellow flowchart-label" id="flowchart-RH-8" data-node="true" data-id="RH" transform="translate(4119.5234375, 562)"><rect class="basic label-container" style="" rx="0" ry="0" x="-186.2734375" y="-33" width="372.546875" height="66"/><g class="label" style="" transform="translate(0, -25.5)"><rect/><text style=""><tspan xml:space="preserve" dy="1em" x="0" class="row">Riemann 🟡 · taken</tspan><tspan xml:space="preserve" dy="1em" x="0" class="row">NOT attackable: RiemannManifestationLaw ⟺ RH</tspan><tspan xml:space="preserve" dy="1em" x="0" class="row">refuting = an off-critical zero (not over ℕ)</tspan></text></g></g><g class="node default yellow flowchart-label" id="flowchart-NS-10" data-node="true" data-id="NS" transform="translate(4543.3046875, 562)"><rect class="basic label-container" style="" rx="0" ry="0" x="-187.5078125" y="-33" width="375.015625" height="66"/><g class="label" style="" transform="translate(0, -25.5)"><rect/><text style=""><tspan xml:space="preserve" dy="1em" x="0" class="row">Navier–Stokes 🟡 · taken</tspan><tspan xml:space="preserve" dy="1em" x="0" class="row">NOT attackable: witness ≥ Galdi Liouville problem</tspan><tspan xml:space="preserve" dy="1em" x="0" class="row">no ⟺-mirror, no decidable predicate</tspan></text></g></g><g class="node default green flowchart-label" id="flowchart-PNP-14" data-node="true" data-id="PNP" transform="translate(169, 141)"><rect class="basic label-container" style="" rx="0" ry="0" x="-169" y="-25" width="338" height="50"/><g class="label" style="" transform="translate(0, -17.5)"><rect/><text style=""><tspan xml:space="preserve" dy="1em" x="0" class="row">P/NP 🟢</tspan><tspan xml:space="preserve" dy="1em" x="0" class="row">rank-fast traversal ≠ full certificate payment</tspan></text></g></g><g class="node default green flowchart-label" id="flowchart-YM-16" data-node="true" data-id="YM" transform="translate(517.95703125, 141)"><rect class="basic label-container" style="" rx="0" ry="0" x="-129.95703125" y="-25" width="259.9140625" height="50"/><g class="label" style="" transform="translate(0, -17.5)"><rect/><text style=""><tspan xml:space="preserve" dy="1em" x="0" class="row">Yang–Mills 🟢</tspan><tspan xml:space="preserve" dy="1em" x="0" class="row">spectral quantisation ⟺ mass gap</tspan></text></g></g><g class="node default green flowchart-label" id="flowchart-HC-18" data-node="true" data-id="HC" transform="translate(829.05078125, 141)"><rect class="basic label-container" style="" rx="0" ry="0" x="-131.13671875" y="-25" width="262.2734375" height="50"/><g class="label" style="" transform="translate(0, -17.5)"><rect/><text style=""><tspan xml:space="preserve" dy="1em" x="0" class="row">Hodge 🟢</tspan><tspan xml:space="preserve" dy="1em" x="0" class="row">descent law ⟺ payment by cycles</tspan></text></g></g><g class="node default green flowchart-label" id="flowchart-BSD-20" data-node="true" data-id="BSD" transform="translate(1192.484375, 141)"><rect class="basic label-container" style="" rx="0" ry="0" x="-182.296875" y="-33" width="364.59375" height="66"/><g class="label" style="" transform="translate(0, -25.5)"><rect/><text style=""><tspan xml:space="preserve" dy="1em" x="0" class="row">Birch–Swinnerton-Dyer 🟢/🔴 · the eighth mask</tspan><tspan xml:space="preserve" dy="1em" x="0" class="row">descent-without-engine on a real curve</tspan><tspan xml:space="preserve" dy="1em" x="0" class="row">🔴 analytic rank = ord L (outside mathlib)</tspan></text></g></g><g class="node default deferred flowchart-label" id="flowchart-MP-22" data-node="true" data-id="MP" transform="translate(1660.07421875, 141)"><rect class="basic label-container" style="" rx="0" ry="0" x="-235.29296875" y="-33" width="470.5859375" height="66"/><g class="label" style="" transform="translate(0, -25.5)"><rect/><text style=""><tspan xml:space="preserve" dy="1em" x="0" class="row">Mersenne ⏸️ · DEFERRED</tspan><tspan xml:space="preserve" dy="1em" x="0" class="row">reason for refusal: the heuristic sign is negative</tspan><tspan xml:space="preserve" dy="1em" x="0" class="row">(Σ over pairs converges; 5∣2^p−3) · witness ≥ 29, unpresentable</tspan></text></g></g><g class="node default green flowchart-label" id="flowchart-ZOO-24" data-node="true" data-id="ZOO" transform="translate(2238.03515625, 141)"><rect class="basic label-container" style="" rx="0" ry="0" x="-292.66796875" y="-41" width="585.3359375" height="82"/><g class="label" style="" transform="translate(0, -33.5)"><rect/><text style=""><tspan xml:space="preserve" dy="1em" x="0" class="row">Arithmetic zoo 🟢 · fields NOT taken (§17)</tspan><tspan xml:space="preserve" dy="1em" x="0" class="row">Polignac · Sophie Germain — sign «for»</tspan><tspan xml:space="preserve" dy="1em" x="0" class="row">Goldbach · Legendre · perfect — witness by decide (strongest unpresentability)</tspan><tspan xml:space="preserve" dy="1em" x="0" class="row">Fermat ⏸️ — sign «against» (strictly stronger than twins)</tspan></text></g></g><g class="node default fallen flowchart-label" id="flowchart-CL-26" data-node="true" data-id="CL" transform="translate(2779.5546875, 141)"><rect class="basic label-container" style="" rx="0" ry="0" x="-198.8515625" y="-41" width="397.703125" height="82"/><g class="label" style="" transform="translate(0, -33.5)"><rect/><text style=""><tspan xml:space="preserve" dy="1em" x="0" class="row">Collatz ✗ · THE DECREE FELL</tspan><tspan xml:space="preserve" dy="1em" x="0" class="row">reason: the rope law was over-strong + decidable</tspan><tspan xml:space="preserve" dy="1em" x="0" class="row">refuted at n=27 (ropeLaw_universal_refuted, decide)</tspan><tspan xml:space="preserve" dy="1em" x="0" class="row">boundary removed, conjecture still open</tspan></text></g></g><g class="node default green flowchart-label" id="flowchart-GEO-28" data-node="true" data-id="GEO" transform="translate(3650.6640625, 419)"><rect class="basic label-container" style="" rx="0" ry="0" x="-139.53515625" y="-33" width="279.0703125" height="66"/><g class="label" style="" transform="translate(0, -25.5)"><rect/><text style=""><tspan xml:space="preserve" dy="1em" x="0" class="row">Geometry of the path 🟢</tspan><tspan xml:space="preserve" dy="1em" x="0" class="row">arrow · curvature κ=1−outdeg (χ=−5)</tspan><tspan xml:space="preserve" dy="1em" x="0" class="row">twin ± flip ⟂ time (C, not T)</tspan></text></g></g><g class="node default green flowchart-label" id="flowchart-WF-32" data-node="true" data-id="WF" transform="translate(3332.03515625, 141)"><rect class="basic label-container" style="" rx="0" ry="0" x="-283.62890625" y="-33" width="567.2578125" height="66"/><g class="label" style="" transform="translate(0, -25.5)"><rect/><text style=""><tspan xml:space="preserve" dy="1em" x="0" class="row">Well-foundedness canon 🟢</tspan><tspan xml:space="preserve" dy="1em" x="0" class="row">Goodstein/hydra (ω-worm, transfinite rank) · Markov descent · Poincaré line</tspan><tspan xml:space="preserve" dy="1em" x="0" class="row">the engine reaches classical termination</tspan></text></g></g></g></g></g></svg>